<?xml version="1.0" encoding="utf-8"?><!DOCTYPE svg PUBLIC "-//W3C//DTD SVG 1.1//EN" "http://www.w3.org/Graphics/SVG/1.1/DTD/svg11.dtd"><svg version="1.1" id="Layer_1" xmlns="http://www.w3.org/2000/svg" xmlns:xlink="http://www.w3.org/1999/xlink" x="0px" y="0px" width="9.299px" height="50.625px" viewBox="0 0 9.299 50.625" enable-background="new 0 0 9.299 50.625" xml:space="preserve"><g><path fill="#FFFFFF" d="M3.516,46.87v1.635h5.667v0.974H3.516v1.147h-0.44l-0.352-1.147H2.367C0.789,49.478,0,48.788,0,47.409c0-0.34,0.068-0.738,0.205-1.195l0.779,0.252c-0.121,0.375-0.182,0.695-0.182,0.961c0,0.367,0.122,0.64,0.366,0.814c0.244,0.176,0.636,0.264,1.175,0.264H2.76V46.87H3.516z"/><path fill="#FFFFFF" d="M9.299,42.985c0,0.949-0.289,1.697-0.866,2.246c-0.578,0.549-1.382,0.824-2.408,0.824c-1.036,0-1.857-0.256-2.467-0.766c-0.61-0.511-0.914-1.193-0.914-2.054c0-0.805,0.265-1.44,0.794-1.909c0.529-0.47,1.228-0.703,2.095-0.703h0.615v4.424c0.754-0.021,1.326-0.211,1.717-0.572S8.45,43.606,8.45,42.95c0-0.691-0.145-1.375-0.434-2.051h0.866c0.148,0.344,0.255,0.668,0.319,0.975C9.267,42.181,9.299,42.551,9.299,42.985z M3.457,43.249c0,0.517,0.168,0.926,0.504,1.232s0.801,0.488,1.396,0.543v-3.357c-0.613,0-1.083,0.138-1.41,0.41C3.621,42.35,3.457,42.741,3.457,43.249z"/><path fill="#FFFFFF" d="M9.299,36.252c0,0.949-0.289,1.697-0.866,2.246c-0.578,0.549-1.382,0.824-2.408,0.824c-1.036,0-1.857-0.256-2.467-0.766c-0.61-0.51-0.914-1.193-0.914-2.053c0-0.805,0.265-1.441,0.794-1.91s1.228-0.703,2.095-0.703h0.615v4.424c0.754-0.02,1.326-0.211,1.717-0.572s0.586-0.869,0.586-1.525c0-0.691-0.145-1.375-0.434-2.051h0.866c0.148,0.344,0.255,0.668,0.319,0.976S9.299,35.819,9.299,36.252z M3.457,36.516c0,0.516,0.168,0.926,0.504,1.232c0.336,0.308,0.801,0.488,1.396,0.543v-3.357c-0.613,0-1.083,0.137-1.41,0.41C3.621,35.618,3.457,36.008,3.457,36.516z"/><path fill="#FFFFFF" d="M8.319,27.862v0.053c0.652,0.449,0.979,1.121,0.979,2.017c0,0.84-0.286,1.493-0.86,1.96S7.047,32.59,5.989,32.59c-1.058,0-1.881-0.233-2.467-0.702c-0.586-0.47-0.879-1.121-0.879-1.957c0-0.871,0.316-1.539,0.949-2.005V27.85l-0.463,0.041l-0.451,0.023H0.064v-0.974h9.117v0.791L8.319,27.862z M8.483,29.807c0-0.664-0.18-1.146-0.541-1.444s-0.944-0.448-1.75-0.448H5.987c-0.909,0-1.559,0.151-1.947,0.455c-0.388,0.303-0.583,0.785-0.583,1.449c0,0.57,0.222,1.008,0.665,1.311S5.19,31.583,6,31.583c0.819,0,1.438-0.149,1.856-0.451C8.274,30.831,8.483,30.389,8.483,29.807z"/><path fill="#FFFFFF" d="M2.654,21.891c0-0.844,0.288-1.499,0.864-1.966c0.576-0.467,1.392-0.7,2.446-0.7c1.055,0,1.874,0.235,2.458,0.706c0.584,0.471,0.876,1.124,0.876,1.96c0,0.418-0.076,0.8-0.23,1.146c-0.154,0.346-0.393,0.636-0.713,0.87v0.07l0.826,0.205v0.697H0.064v-0.973h2.215c0.496,0,0.941,0.016,1.336,0.047v-0.047C2.975,23.454,2.654,22.782,2.654,21.891z M3.469,22.032c0,0.664,0.19,1.143,0.571,1.436s1.022,0.439,1.925,0.439c0.903,0,1.548-0.15,1.937-0.451c0.39-0.301,0.584-0.783,0.584-1.447c0-0.598-0.219-1.043-0.653-1.336s-1.062-0.439-1.878-0.439c-0.836,0-1.459,0.146-1.869,0.439S3.469,21.418,3.469,22.032z"/><path fill="#FFFFFF" d="M9.183,13.577L8.269,13.77v0.047c0.401,0.32,0.674,0.64,0.816,0.958s0.214,0.716,0.214,1.192c0,0.637-0.164,1.136-0.491,1.497c-0.328,0.361-0.795,0.542-1.4,0.542c-1.297,0-1.977-1.037-2.039-3.111l-0.035-1.09H4.934c-0.504,0-0.876,0.108-1.116,0.325c-0.24,0.217-0.36,0.563-0.36,1.04c0,0.535,0.164,1.141,0.492,1.816l-0.744,0.299c-0.172-0.316-0.307-0.663-0.404-1.04c-0.097-0.377-0.146-0.755-0.146-1.134c0-0.766,0.17-1.333,0.51-1.702c0.34-0.369,0.885-0.554,1.635-0.554h4.384v0.722H9.183z M8.496,15.774c0-0.605-0.166-1.081-0.498-1.427c-0.332-0.346-0.797-0.519-1.396-0.519h-0.58l0.041,0.973c0.027,0.773,0.147,1.331,0.36,1.673c0.214,0.342,0.544,0.513,0.993,0.513c0.352,0,0.619-0.106,0.803-0.319S8.496,16.157,8.496,15.774z"/><path fill="#FFFFFF" d="M9.299,8.285c0,0.93-0.286,1.649-0.858,2.159c-0.571,0.51-1.381,0.765-2.428,0.765c-1.075,0-1.905-0.259-2.491-0.776S2.643,9.178,2.643,8.221c0-0.309,0.033-0.617,0.1-0.926C2.81,6.986,2.888,6.744,2.977,6.568l0.826,0.299C3.717,7.082,3.646,7.316,3.589,7.57C3.532,7.824,3.504,8.049,3.504,8.244c0,1.305,0.832,1.957,2.496,1.957c0.789,0,1.396-0.159,1.815-0.478c0.422-0.319,0.634-0.79,0.634-1.415c0-0.535-0.115-1.084-0.347-1.646h0.861C9.188,7.092,9.299,7.633,9.299,8.285z"/><path fill="#FFFFFF" d="M5.896,4.178C5.656,4.01,5.344,3.754,4.957,3.41L2.76,1.336V0.182l2.736,2.602L9.183,0v1.178L6.146,3.445l0.633,0.732h2.402v0.961H0.064v-0.96h4.834c0.215,0,0.546,0.016,0.996,0.047V4.178H5.896z"/></g></svg>