<svg height="385pt" viewBox="0 0 385 385.336" width="385pt" xmlns="http://www.w3.org/2000/svg"><path d="m112.167969 352c21.710937 0 42.726562-2.894531 60.359375-8.183594l99.640625 41.519532 112-46.671876v-181.328124l-112-46.664063-48 20v-74.671875c0-36.769531-56.34375-56-112-56s-112 19.230469-112 56v240c0 36.769531 56.34375 56 112 56zm80-160 64 26.664062v125.335938l-64-26.664062zm96 152v-125.328125l64-26.671875v125.335938zm38.398437-176-54.398437 22.664062-54.398438-22.664062 54.398438-22.664062zm-166.398437-10.664062v156.742187c-14.007813 3.824219-30.617188 5.921875-48 5.921875-52.496094 0-80-17.832031-80-24v-199.761719c21.351562 10.394531 50.726562 15.761719 80 15.761719 29.273437 0 58.648437-5.367188 80-15.761719v47.761719zm-48-125.335938c52.496093 0 80 17.832031 80 24s-27.503907 24-80 24c-52.496094 0-80-17.832031-80-24s27.503906-24 80-24zm0 0"/></svg>