<?xml version="1.0" encoding="utf-8"?>
<!-- Generator: Adobe Illustrator 23.0.3, SVG Export Plug-In . SVG Version: 6.00 Build 0)  -->
<svg version="1.1" id="Capa_1" xmlns="http://www.w3.org/2000/svg" xmlns:xlink="http://www.w3.org/1999/xlink" x="0px" y="0px"
	 viewBox="0 0 512 512" style="enable-background:new 0 0 512 512;" xml:space="preserve">
<g>
	<g>
		<g>
			<path d="M295.8,168.8c-38.4-38.4-100.9-38.4-139.3,0c-38.4,38.4-38.4,100.9,0,139.3c19.2,19.2,44.4,28.8,69.7,28.8
				s50.5-9.6,69.7-28.8C334.2,269.7,334.2,207.2,295.8,168.8z M280.3,292.6c-29.9,29.9-78.5,29.9-108.4,0
				c-29.9-29.9-29.9-78.5,0-108.4c14.9-14.9,34.6-22.4,54.2-22.4s39.2,7.5,54.2,22.4C310.2,214.1,310.2,262.7,280.3,292.6z"/>
		</g>
	</g>
	<g>
		<g>
			<path d="M394.5,235.3c-0.9-46.9-21.3-91.4-56.4-122.7c-17.5-15.6-37.7-27.2-59.9-34.4c-23.2-7.5-47.5-9.9-72.2-7
				c-35.3,4.1-69.3,20.1-95.7,45.1c-26.4,25-44.2,58.1-50.2,93.1c-7.1,42,1.1,83,23.6,118.4c16.8,26.4,25.9,59.8,25.9,96.6l0,87.8
				h207.1v-79.5h77.7V355h59.8L394.5,235.3z M368.8,329.1v77.7h-77.7v79.5H135.4l0-61.9c0-41.8-10.3-80-29.8-110.5
				c-19.1-29.9-26-64.5-19.9-100.1C95.9,153.2,147.8,104,209,96.9c41.4-4.8,81.1,7.6,111.9,35.1c30.4,27,47.8,65.8,47.8,106.5v3.1
				l43.8,87.6H368.8L368.8,329.1z"/>
		</g>
	</g>
	<g>
		<g>
			<path d="M267.5,197c-22.8-22.8-60-22.8-82.8,0c-22.8,22.8-22.8,60,0,82.8c11.4,11.4,26.4,17.1,41.4,17.1c15,0,30-5.7,41.4-17.1
				C290.4,257,290.4,219.9,267.5,197z M258.3,270.7c-17.8,17.8-46.7,17.8-64.4,0c-17.8-17.8-17.8-46.7,0-64.4
				c8.9-8.9,20.5-13.3,32.2-13.3s23.3,4.4,32.2,13.3C276.1,224,276.1,252.9,258.3,270.7z"/>
		</g>
	</g>
</g>
<rect x="35.9" y="86.4" transform="matrix(0.662 -0.7495 0.7495 0.662 -72.5651 76.938)" width="26.3" height="65"/>
<rect x="102.3" y="25.5" transform="matrix(0.866 -0.5 0.5 0.866 -13.4153 65.8634)" width="27.8" height="65"/>
<rect x="378.3" y="81.4" transform="matrix(-0.662 -0.7495 0.7495 -0.662 565.1625 482.7124)" width="26.3" height="65"/>
<rect x="310.4" y="20.5" transform="matrix(-0.866 -0.5 0.5 -0.866 578.5748 260.9587)" width="27.8" height="65"/>
<rect x="206.4" transform="matrix(-1 -1.224647e-16 1.224647e-16 -1 440.4985 62)" width="27.8" height="62"/>
</svg>
