<svg xmlns="http://www.w3.org/2000/svg" width="28" height="28" viewBox="0 0 28 28">
  <defs>
    <style>
      .cls-1 {
        fill: #eef2f5;
        stroke: #e1e7f0;
        stroke-linejoin: round;
        opacity: 0;
      }

      .cls-1, .cls-2 {
        stroke-width: 1px;
      }

      .cls-2 {
        fill: none;
        stroke: #363c45;
        fill-rule: evenodd;
      }
    </style>
  </defs>
  <rect id="모서리가_둥근_직사각형_7_복사_9" data-name="모서리가 둥근 직사각형 7 복사 9" class="cls-1" x="-17" y="22" width="28" height="28" rx="2" ry="2"/>
  <path id="모서리가_둥근_직사각형_7" data-name="모서리가 둥근 직사각형 7" class="cls-2" d="M13.881,12.236l0.784-1.368a2.1,2.1,0,0,1,2.891-.756L24.93,14.4a2.136,2.136,0,0,1,.8,2.9l-2.1,3.655a2.1,2.1,0,0,1-2.891.756L15.209,18.5"/>
  <path id="모서리가_둥근_직사각형_7_복사_3" data-name="모서리가 둥근 직사각형 7 복사 3" class="cls-2" d="M16.119,14.764l-0.784,1.367a2.1,2.1,0,0,1-2.891.756L5.071,12.6a2.136,2.136,0,0,1-.8-2.9l2.1-3.655a2.1,2.1,0,0,1,2.891-.756L14.791,8.5"/>
</svg>
