<?xml version="1.0" encoding="utf-8"?>
<!-- Generator: Adobe Illustrator 23.0.3, SVG Export Plug-In . SVG Version: 6.00 Build 0)  -->
<svg version="1.1" id="Capa_1" xmlns="http://www.w3.org/2000/svg" xmlns:xlink="http://www.w3.org/1999/xlink" x="0px" y="0px"
	 viewBox="0 0 279.2 279.2" style="enable-background:new 0 0 279.2 279.2;" xml:space="preserve">
<style type="text/css">
	.st0{fill:#222220;}
</style>
<path class="st0" d="M29.2,65.7l111.1-49.6l110.2,50l-110.2,48.4L14.7,59.3c0,0,0,0,0,0c-0.2-0.1-0.4-0.1-0.6-0.2c0,0-0.1,0-0.1-0.1
	c-0.2,0-0.3-0.1-0.5-0.1c-0.1,0-0.2,0-0.3-0.1c-0.1,0-0.2,0-0.3-0.1c-0.1,0-0.3-0.1-0.4-0.1c-0.1,0-0.1,0-0.2,0c-0.2,0-0.4,0-0.5,0
	c0,0,0,0,0,0c-0.1,0-0.1,0-0.2,0c-0.2,0-0.3,0-0.5,0c-0.1,0-0.2,0-0.4,0c-0.1,0-0.2,0-0.3,0.1c-0.2,0-0.3,0.1-0.5,0.1
	c-0.1,0-0.2,0-0.2,0.1c-0.2,0-0.3,0.1-0.5,0.2c-0.1,0-0.1,0-0.2,0.1c-0.2,0.1-0.3,0.1-0.5,0.2c-0.1,0-0.1,0.1-0.2,0.1
	c-0.1,0.1-0.3,0.1-0.4,0.2c-0.1,0-0.2,0.1-0.2,0.1c-0.1,0.1-0.2,0.2-0.3,0.2c-0.1,0.1-0.2,0.1-0.3,0.2c-0.1,0.1-0.2,0.2-0.3,0.2
	c-0.1,0.1-0.2,0.2-0.3,0.3c-0.1,0.1-0.2,0.2-0.2,0.2c-0.1,0.1-0.2,0.2-0.3,0.3c-0.1,0.1-0.1,0.2-0.2,0.3c-0.1,0.1-0.1,0.2-0.2,0.3
	c-0.1,0.1-0.2,0.2-0.2,0.4c0,0.1-0.1,0.2-0.1,0.2c-0.1,0.2-0.2,0.3-0.2,0.5c0,0,0,0.1-0.1,0.1c0,0,0,0,0,0c-0.1,0.2-0.1,0.4-0.2,0.6
	c0,0,0,0.1-0.1,0.1c0,0.2-0.1,0.3-0.1,0.5c0,0.1,0,0.2-0.1,0.3c0,0.1,0,0.2,0,0.3c0,0.2-0.1,0.3-0.1,0.5c0,0.1,0,0.1,0,0.2
	c0,0.2,0,0.4,0,0.6c0,0,0,0,0,0v146.4c0,2.9,1.7,5.6,4.4,6.8l128.6,59.4c0,0,0,0,0,0c0.1,0,0.1,0,0.2,0.1c0.3,0.1,0.5,0.2,0.8,0.3
	c0.1,0,0.2,0,0.3,0.1c0.2,0.1,0.5,0.1,0.7,0.2c0.1,0,0.1,0,0.2,0c0.3,0,0.6,0.1,1,0.1c0,0,0.1,0,0.1,0c0.3,0,0.6,0,0.8-0.1
	c0.1,0,0.2,0,0.3,0c0.2,0,0.4-0.1,0.7-0.1c0.1,0,0.2-0.1,0.3-0.1c0.2-0.1,0.5-0.2,0.7-0.3c0.1,0,0.1,0,0.2-0.1c0,0,0,0,0,0
	L272,219.4c2.7-1.2,4.4-3.9,4.4-6.8V66.2c0-0.3,0-0.6-0.1-1c0-0.1,0-0.2,0-0.2c0-0.3-0.1-0.6-0.2-0.8c0,0,0-0.1,0-0.1
	c-0.1-0.3-0.2-0.6-0.3-0.9c0,0,0-0.1-0.1-0.1c-0.1-0.3-0.3-0.5-0.4-0.7c0,0-0.1-0.1-0.1-0.1c-0.2-0.3-0.4-0.5-0.6-0.8
	c0,0-0.1-0.1-0.1-0.1c-0.2-0.2-0.4-0.4-0.6-0.6c-0.1,0-0.1-0.1-0.2-0.1c-0.2-0.2-0.5-0.4-0.8-0.6c0,0-0.1-0.1-0.1-0.1
	c-0.3-0.2-0.5-0.3-0.8-0.4c0,0-0.1,0-0.1,0L143.4,1c-2-0.9-4.2-0.9-6.2,0L7.6,59.9 M132.2,123.7l0.6,136.7L19.2,207.8V77.7
	l118.1,51.9c1,0.4,2,0.6,3,0.6s2.1-0.2,3-0.6l118.1-51.9v130.1l-113.6,52.5l0-135.6"/>
</svg>
