<?xml version="1.0" encoding="iso-8859-1"?>
<!-- Generator: Adobe Illustrator 19.0.0, SVG Export Plug-In . SVG Version: 6.00 Build 0)  -->
<svg version="1.1" id="Capa_1" xmlns="http://www.w3.org/2000/svg" xmlns:xlink="http://www.w3.org/1999/xlink" x="0px" y="0px"
	 viewBox="0 0 490.667 490.667" style="enable-background:new 0 0 490.667 490.667;" xml:space="preserve">
<g>
	<g>
		<path d="M458.667,0H32C14.357,0,0,14.357,0,32v426.667c0,17.643,14.357,32,32,32h426.667c17.643,0,32-14.357,32-32V32
			C490.667,14.357,476.309,0,458.667,0z M234.667,394.667c0,5.888-4.779,10.667-10.667,10.667s-10.667-4.779-10.667-10.667V292.416
			L82.219,423.531c-2.091,2.091-4.821,3.136-7.552,3.136c-2.731,0-5.461-1.045-7.552-3.115c-4.16-4.16-4.16-10.923,0-15.083
			l131.136-131.136H96c-5.888,0-10.667-4.779-10.667-10.667S90.112,256,96,256h128c1.387,0,2.773,0.277,4.075,0.811
			c2.603,1.088,4.693,3.157,5.781,5.781c0.533,1.301,0.811,2.688,0.811,4.075V394.667z M423.552,82.219L292.416,213.333h102.251
			c5.888,0,10.667,4.779,10.667,10.667s-4.779,10.667-10.667,10.667h-128c-1.387,0-2.773-0.277-4.075-0.811
			c-2.603-1.088-4.693-3.157-5.781-5.781C256.277,226.773,256,225.387,256,224V96c0-5.888,4.779-10.667,10.667-10.667
			S277.333,90.112,277.333,96v102.251L408.448,67.136c4.16-4.16,10.923-4.16,15.083,0C427.691,71.296,427.712,78.037,423.552,82.219
			z"/>
	</g>
</g>
<g>
</g>
<g>
</g>
<g>
</g>
<g>
</g>
<g>
</g>
<g>
</g>
<g>
</g>
<g>
</g>
<g>
</g>
<g>
</g>
<g>
</g>
<g>
</g>
<g>
</g>
<g>
</g>
<g>
</g>
</svg>
