<?xml version="1.0" encoding="utf-8"?>
<!-- Generator: Adobe Illustrator 23.0.3, SVG Export Plug-In . SVG Version: 6.00 Build 0)  -->
<svg version="1.1" id="Layer_1" xmlns="http://www.w3.org/2000/svg" xmlns:xlink="http://www.w3.org/1999/xlink" x="0px" y="0px"
	 viewBox="0 0 28 28" style="enable-background:new 0 0 28 28;" xml:space="preserve">
<style type="text/css">
	.st0{fill-rule:evenodd;clip-rule:evenodd;fill:#EEF2F5;stroke:#363C45;stroke-linejoin:round;}
	.st1{fill:#363C45;}
	.st2{font-family:'Raleway-Medium';}
	.st3{font-size:15px;}
</style>
<g>
	<g>
		<path class="st0" d="M18.2,18.9H2c-0.6,0-1.1-0.5-1.1-1.1V4.3c0-0.6,0.5-1.1,1.1-1.1h16.2c0.6,0,1.1,0.5,1.1,1.1v13.5
			C19.3,18.4,18.8,18.9,18.2,18.9z"/>
		<polyline class="st0" points="0.8,15.7 0.8,21.7 4.2,18.7 		"/>
	</g>
	<g>
		<path class="st0" d="M9.8,23.8H26c0.6,0,1.1-0.5,1.1-1.1V9.2c0-0.6-0.5-1.1-1.1-1.1H9.8c-0.6,0-1.1,0.5-1.1,1.1v13.5
			C8.7,23.3,9.2,23.8,9.8,23.8z"/>
		<polyline class="st0" points="27.2,20.6 27.2,26.6 23.8,23.6 		"/>
	</g>
	<text transform="matrix(1.1173 0 0 1 13.4198 20.7024)" class="st1 st2 st3">?</text>
</g>
</svg>
