<svg xmlns="http://www.w3.org/2000/svg" width="28" height="28" viewBox="0 0 28 28">
  <defs>
    <style>
      .cls-1, .cls-2 {
        fill: #eef2f5;
        stroke: #363c45;
        stroke-width: 1px;
      }

      .cls-1 {
        stroke-dasharray: 4 2;
      }

      .cls-2 {
        stroke-linejoin: round;
      }

      .cls-2, .cls-3 {
        fill-rule: evenodd;
      }

      .cls-3 {
        fill: #363c45;
      }
    </style>
  </defs>
  <rect id="사각형_7_복사_4" data-name="사각형 7 복사 4" class="cls-1" x="5" y="5" width="18" height="18"/>
  <path id="사각형_7_복사_4-2" data-name="사각형 7 복사 4" class="cls-2" d="M3,3H7V7H3V3ZM21,3h4V7H21V3ZM3,21H7v4H3V21Zm18,0h4v4H21V21Z"/>
  <path id="사각형_8_복사" data-name="사각형 8 복사" class="cls-3" d="M9,9H19v1H9V9Zm0,1h1v1H9V10Zm9,0h1v1H18V10Zm-6,8h4v1H12V18Zm1-8h2v9H13V10Z"/>
</svg>
